HIERARCHY
ROOT Hips
{
 OFFSET 0.000000 0.000000 0.000000
 CHANNELS 6 Xposition Yposition Zposition Yrotation Xrotation Zrotation
 JOINT Chest
 {
  OFFSET 0.000000 9.585900 0.002600
  CHANNELS 3 Yrotation Xrotation Zrotation
  JOINT Chest2
  {
   OFFSET 0.000000 9.601200 -0.005300
   CHANNELS 3 Yrotation Xrotation Zrotation
   JOINT Chest3
   {
    OFFSET 0.000000 9.561800 0.000000
    CHANNELS 3 Yrotation Xrotation Zrotation
    JOINT Chest4
    {
     OFFSET 0.000000 9.552100 0.000000
     CHANNELS 3 Yrotation Xrotation Zrotation
     JOINT Neck
     {
      OFFSET 0.000000 14.453000 0.000000
      CHANNELS 3 Yrotation Xrotation Zrotation
      JOINT Head
      {
       OFFSET 0.000000 8.936500 -0.011300
       CHANNELS 3 Yrotation Xrotation Zrotation
       End Site
       {
        OFFSET 0.000000 17.073600 -0.006000
       }
      }
     }
     JOINT RightCollar
     {
      OFFSET -2.921100 9.558500 0.000000
      CHANNELS 3 Yrotation Xrotation Zrotation
      JOINT RightShoulder
      {
       OFFSET -13.519700 0.000000 0.000000
       CHANNELS 3 Yrotation Xrotation Zrotation
       JOINT RightElbow
       {
        OFFSET 0.000000 -29.696600 0.000000
        CHANNELS 3 Yrotation Xrotation Zrotation
        JOINT RightWrist
        {
         OFFSET 0.000000 -24.004700 0.000000
         CHANNELS 3 Yrotation Xrotation Zrotation
         End Site
         {
          OFFSET 0.000000 -17.728500 0.000000
         }
        }
       }
      }
     }
     JOINT LeftCollar
     {
      OFFSET 2.921100 9.558500 0.000000
      CHANNELS 3 Yrotation Xrotation Zrotation
      JOINT LeftShoulder
      {
       OFFSET 13.519700 0.000000 0.000000
       CHANNELS 3 Yrotation Xrotation Zrotation
       JOINT LeftElbow
       {
        OFFSET 0.000000 -29.696600 0.000000
        CHANNELS 3 Yrotation Xrotation Zrotation
        JOINT LeftWrist
        {
         OFFSET 0.000000 -24.004700 0.000000
         CHANNELS 3 Yrotation Xrotation Zrotation
         End Site
         {
          OFFSET 0.000000 -17.728500 0.000000
         }
        }
       }
      }
     }
    }
   }
  }
 }
 JOINT RightHip
 {
  OFFSET -7.771700 -0.012900 -0.001300
  CHANNELS 3 Yrotation Xrotation Zrotation
  JOINT RightKnee
  {
   OFFSET 0.000000 -40.869800 0.001200
   CHANNELS 3 Yrotation Xrotation Zrotation
   JOINT RightAnkle
   {
    OFFSET 0.000000 -39.717900 0.002100
    CHANNELS 3 Yrotation Xrotation Zrotation
    JOINT RightToe
    {
     OFFSET 0.000000 -4.965400 11.033500
     CHANNELS 3 Yrotation Xrotation Zrotation
     End Site
     {
      OFFSET 0.000000 -1.423100 5.872300
     }
    }
   }
  }
 }
 JOINT LeftHip
 {
  OFFSET 7.771700 -0.012900 -0.001300
  CHANNELS 3 Yrotation Xrotation Zrotation
  JOINT LeftKnee
  {
   OFFSET 0.000000 -40.869800 0.001200
   CHANNELS 3 Yrotation Xrotation Zrotation
   JOINT LeftAnkle
   {
    OFFSET 0.000000 -39.717900 0.002100
    CHANNELS 3 Yrotation Xrotation Zrotation
    JOINT LeftToe
    {
     OFFSET 0.000000 -4.965400 11.033500
     CHANNELS 3 Yrotation Xrotation Zrotation
     End Site
     {
      OFFSET 0.000000 -1.423100 5.872300
     }
    }
   }
  }
 }
}
MOTION
Frames: 15
Frame Time: 0.008333
0.000000 85.388000 0.000000 0.000000 -5.767877 0.000000 0.000000 11.653817 0.000000 0.000000 -5.885947 0.000000 0.000000 -0.000000 0.000000 0.000000 -0.000000 0.000000 0.000000 12.528835 0.000000 0.000000 0.711642 0.000000 0.000000 -0.000000 0.000000 0.000000 0.000000 -90.000000 0.000000 -2.309062 0.000000 0.000000 2.309062 0.000000 0.000000 -0.000000 0.000000 0.000000 -0.000000 90.000000 0.000000 -2.309062 0.000000 0.000000 2.309062 0.000000 0.000000 8.520406 0.000000 0.000000 1.905762 0.000000 -0.000000 -4.658285 0.000000 0.000000 -0.000000 0.000000 0.000000 8.520406 0.000000 0.000000 1.905762 0.000000 -0.000000 -4.658285 0.000000 0.000000 -0.000000 0.000000
-239.492800 60.594778 -75.073632 161.082671 -18.474889 3.710059 2.821129 16.818387 2.334451 0.262761 1.747833 0.236796 0.442171 2.912755 0.399313 2.490164 14.680301 2.292315 2.708150 14.855815 -2.689913 3.483621 -10.060633 -3.468353 9.953400 3.014692 -6.159500 21.235530 -24.731309 -21.810680 36.297347 -43.673841 -30.189322 9.348939 0.711360 -30.443183 -11.249736 -6.139523 -4.312588 -20.376356 -25.867021 17.924411 -31.184459 -24.871423 22.137624 -4.681712 1.120271 25.252098 -0.447831 -51.457375 3.261767 -24.896362 70.987409 -24.537096 -2.283057 -5.221499 -1.695408 0.291729 -0.339264 0.033681 17.062012 -49.098872 -6.252853 24.119393 65.112668 22.985450 -17.264126 -13.272522 2.588546 -0.075456 0.130767 -0.037591
-239.492073 60.586668 -75.051494 161.059774 -18.493163 3.738101 2.779919 16.747639 2.288225 0.262420 1.745214 0.235394 0.441547 2.908758 0.397042 2.487660 14.672005 2.281925 2.729859 14.912088 -2.675675 3.431830 -10.111067 -3.444039 9.993306 2.999724 -6.109070 21.302474 -24.726032 -21.993230 36.097083 -43.649807 -29.863669 9.343262 0.718977 -30.515393 -11.259489 -6.084785 -4.338846 -20.355360 -25.879626 17.979163 -31.177365 -24.829675 22.158973 -4.680298 1.132362 25.183387 -0.454225 -51.453671 3.220040 -24.783422 70.997731 -24.380577 -2.266557 -5.197521 -1.742271 0.296047 -0.343220 0.036224 17.092176 -49.085480 -6.256746 24.249217 65.044954 23.094298 -17.405815 -13.115587 2.590879 -0.047503 0.060099 -0.045226
-239.491656 60.579301 -75.031371 161.023867 -18.544225 3.789330 2.740470 16.711387 2.225373 0.261641 1.742390 0.234393 0.468494 2.954566 0.399081 2.453485 14.612525 2.270205 2.704911 14.890959 -2.665636 3.437403 -10.079994 -3.432160 10.037157 2.991346 -6.064361 21.360304 -24.729039 -22.160215 35.910733 -43.616181 -29.549171 9.327163 0.713418 -30.579428 -11.274660 -6.047463 -4.384085 -20.303550 -25.838035 18.012794 -31.189574 -24.817258 22.199361 -4.682848 1.159668 25.138836 -0.474467 -51.421537 3.151204 -24.542316 71.041320 -24.139939 -2.159331 -5.176707 -1.736362 0.198661 -0.350494 -0.005257 17.149662 -49.042532 -6.273423 24.326144 65.008906 23.155051 -17.474674 -12.944654 2.589064 -0.025775 0.027078 -0.041840
-239.474614 60.570768 -75.005286 160.980398 -18.605832 3.748361 2.764925 16.727554 2.274355 0.236573 1.693087 0.230662 0.451384 2.924181 0.395289 2.462103 14.628280 2.266449 2.681022 14.871816 -2.654836 3.445538 -10.045642 -3.423720 10.087339 2.991088 -6.021648 21.403356 -24.745815 -22.309368 35.735491 -43.545594 -29.205584 9.300826 0.678216 -30.660720 -11.308885 -6.028106 -4.440105 -20.234556 -25.777829 18.051048 -31.199514 -24.804874 22.229751 -4.730571 1.188487 25.126100 -0.529727 -51.360982 3.228041 -24.469433 71.025627 -23.998019 -2.169985 -5.150001 -1.781475 0.229116 -0.351816 -0.014588 17.103871 -49.007985 -6.163942 24.423909 64.963138 23.238785 -17.383899 -12.839510 2.591400 0.026464 0.055605 -0.043853
-239.459102 60.563660 -74.983111 160.916121 -18.694751 3.738783 2.764806 16.704770 2.284507 0.247406 1.712545 0.230571 0.437027 2.894578 0.392346 2.468380 14.642730 2.261001 2.673700 14.882876 -2.643143 3.434798 -10.034517 -3.409299 10.139148 3.049388 -5.986657 21.426755 -24.830525 -22.451454 35.556341 -43.467511 -28.874151 9.271326 0.640959 -30.775418 -11.334993 -5.984778 -4.485410 -20.195451 -25.770998 18.114093 -31.193835 -24.776747 22.226209 -4.716128 1.213661 25.076001 -0.571720 -51.274567 3.274674 -24.323671 71.027437 -23.810484 -2.135673 -5.125552 -1.824797 0.206983 -0.353159 -0.005985 17.093883 -48.939520 -6.077815 24.477984 64.944986 23.282601 -17.266869 -12.750397 2.601659 0.019889 0.022131 -0.060987
-239.446698 60.556628 -74.961202 160.853464 -18.782068 3.752414 2.757646 16.678649 2.267814 0.259101 1.733217 0.231425 0.436037 2.889644 0.390502 2.464602 14.632270 2.253042 2.666017 14.896781 -2.629781 3.423220 -10.020513 -3.393053 10.189169 3.108244 -5.946905 21.429888 -24.924841 -22.575679 35.343026 -43.349635 -28.482472 9.227223 0.556327 -30.983683 -11.364314 -5.933785 -4.527337 -20.165847 -25.767899 18.175014 -31.166717 -24.737558 22.194938 -4.754944 1.225776 25.066597 -0.585324 -51.189777 3.286848 -24.182595 71.027824 -23.628309 -2.114176 -5.108419 -1.884080 0.202517 -0.349578 -0.014676 17.106315 -48.868633 -6.019848 24.527473 64.930773 23.326624 -17.253411 -12.659562 2.611074 0.053925 0.049855 -0.054127
-239.435954 60.548220 -74.935388 160.808208 -18.843005 3.764994 2.750178 16.649323 2.250625 0.258830 1.730142 0.230269 0.435591 2.884775 0.388502 2.463526 14.621777 2.244865 2.658721 14.912938 -2.615964 3.411865 -10.004151 -3.376402 10.232653 3.113330 -5.893321 21.421145 -24.974235 -22.671485 35.152760 -43.251686 -28.135582 9.201137 0.488102 -31.131967 -11.393327 -5.879103 -4.565925 -20.152037 -25.805546 18.252774 -31.161827 -24.690525 22.189749 -4.772452 1.265336 25.018137 -0.595626 -51.130943 3.284667 -24.068211 71.018309 -23.453123 -2.112578 -5.092539 -1.963578 0.217292 -0.340023 0.005034 17.113748 -48.825103 -5.976418 24.596286 64.899203 23.398734 -17.346912 -12.564171 2.603018 0.018232 0.081582 -0.051176
-239.424606 60.538931 -74.907071 160.795383 -18.889299 3.759146 2.717024 16.604823 2.240390 0.259027 1.727278 0.229129 0.435894 2.880136 0.386636 2.466211 14.611517 2.237376 2.661999 14.953391 -2.600522 3.388164 -10.007101 -3.359342 10.254323 3.038243 -5.821773 21.421513 -24.951523 -22.735782 34.982322 -43.159717 -27.824584 9.181442 0.429611 -31.249636 -11.424247 -5.825500 -4.602662 -20.107000 -25.788181 18.293046 -31.197815 -24.689166 22.248016 -4.829122 1.319380 24.981379 -0.645400 -51.088689 3.298144 -23.972974 71.011702 -23.312915 -2.083297 -5.078085 -2.004717 0.211714 -0.332164 0.000821 17.087353 -48.799276 -5.935458 24.646157 64.849077 23.472950 -17.443715 -12.478522 2.555874 -0.015326 0.108487 -0.039303
-239.412315 60.531604 -74.884612 160.748088 -18.966601 3.769170 2.713200 16.594206 2.226768 0.259593 1.724637 0.228032 0.456616 2.925297 0.390996 2.451062 14.552398 2.222848 2.686381 15.039592 -2.582580 3.339970 -10.050293 -3.342679 10.288895 3.023968 -5.755949 21.401722 -24.985310 -22.799157 34.823263 -43.063688 -27.546105 9.160753 0.375936 -31.361007 -11.457453 -5.773341 -4.640685 -20.058225 -25.754618 18.325905 -31.232555 -24.693938 22.308362 -4.832379 1.361171 24.926765 -0.661911 -51.011300 3.306520 -23.887982 71.003135 -23.185906 -2.051767 -5.068686 -2.044888 0.199915 -0.318426 0.021367 17.090499 -48.733905 -5.888482 24.659324 64.825767 23.503317 -17.476185 -12.430168 2.532654 -0.020459 0.141721 -0.034510
-239.401263 60.524564 -74.863568 160.701624 -19.045192 3.785934 2.708008 16.585827 2.207173 0.260126 1.721904 0.226940 0.446599 2.895937 0.385570 2.468931 14.567349 2.219566 2.676639 15.059779 -2.569268 3.328015 -10.026211 -3.327911 10.323643 3.037793 -5.693982 21.381827 -25.039411 -22.856578 34.676662 -42.970549 -27.300809 9.141752 0.336738 -31.462855 -11.459383 -5.692397 -4.664313 -20.049497 -25.782040 18.355511 -31.257709 -24.671888 22.350150 -4.871912 1.403243 24.887733 -0.676597 -50.930551 3.309234 -23.803650 70.992854 -23.064594 -2.031617 -5.064021 -2.059539 0.207407 -0.303542 -0.004321 17.100364 -48.666814 -5.849985 24.657381 64.809030 23.519089 -17.515203 -12.378821 2.514547 0.048222 0.162811 -0.023968
-239.388270 60.517411 -74.842412 160.679006 -19.122848 3.780043 2.687235 16.576305 2.202967 0.278660 1.764446 0.232036 0.421110 2.821436 0.375347 2.499735 14.634077 2.227128 2.619354 14.964452 -2.571801 3.377437 -9.910792 -3.318998 10.343547 3.022755 -5.654041 21.362348 -25.109056 -22.908745 34.541654 -42.881832 -27.083579 9.125478 0.309541 -31.554713 -11.522390 -5.711005 -4.707160 -19.992370 -25.790725 18.392489 -31.288911 -24.626612 22.379554 -4.947341 1.452874 24.879076 -0.735112 -50.850898 3.347290 -23.713648 70.988838 -22.968337 -1.976739 -5.062906 -2.071565 0.167145 -0.288856 -0.010380 17.057793 -48.629186 -5.794474 24.715143 64.813619 23.581341 -17.441379 -12.305358 2.493863 0.036318 0.144973 -0.023532
-239.370240 60.509907 -74.820038 160.626631 -19.195115 3.748942 2.726599 16.606025 2.245663 0.253713 1.694899 0.222745 0.432586 2.840238 0.376775 2.518286 14.673776 2.231467 2.588428 14.914847 -2.570530 3.359981 -9.882014 -3.297703 10.360157 3.053060 -5.628773 21.345008 -25.219565 -22.954682 34.421394 -42.795076 -26.895436 9.112528 0.290412 -31.638450 -11.580864 -5.729595 -4.750856 -19.930536 -25.740498 18.420137 -31.328072 -24.629206 22.449070 -4.938080 1.489893 24.815051 -0.778402 -50.774371 3.423120 -23.700441 70.962914 -22.895215 -1.968064 -5.040296 -2.121652 0.195757 -0.288323 -0.012019 17.006139 -48.592935 -5.688220 24.763459 64.811435 23.633153 -17.337201 -12.271790 2.474386 0.015973 0.155286 -0.026012
-239.355884 60.502614 -74.799288 160.577818 -19.263637 3.736644 2.733090 16.568830 2.254241 0.254893 1.691560 0.221350 0.455605 2.905264 0.383908 2.493856 14.539699 2.201245 2.595502 15.014849 -2.540887 3.330327 -9.873015 -3.275145 10.400744 3.088035 -5.517812 21.337104 -25.202810 -22.987841 34.319076 -42.706490 -26.738797 9.104924 0.278556 -31.716231 -11.604814 -5.600669 -4.794738 -19.873536 -25.741141 18.446868 -31.382264 -24.611471 22.500221 -4.965650 1.539595 24.782891 -0.847805 -50.698844 3.484131 -23.619753 70.944725 -22.777531 -1.932259 -5.028047 -2.166958 0.203633 -0.281214 -0.035862 16.961727 -48.558249 -5.600726 24.809197 64.815981 23.678029 -17.281635 -12.236660 2.460034 0.013475 0.158715 -0.029116
-239.344306 60.496363 -74.782411 160.525460 -19.343102 3.745303 2.734854 16.544239 2.242589 0.263970 1.711260 0.222438 0.450588 2.877769 0.378701 2.507787 14.528107 2.190926 2.607139 15.101556 -2.514673 3.297470 -9.887697 -3.258599 10.413233 3.106745 -5.440140 21.347297 -25.161714 -22.995873 34.243535 -42.650285 -26.672412 9.104026 0.271613 -31.787838 -11.642404 -5.521522 -4.835144 -19.803553 -25.818894 18.472427 -31.444706 -24.529931 22.490042 -5.078473 1.588264 24.789361 -0.875564 -50.613510 3.511734 -23.559588 70.930678 -22.688826 -1.900136 -5.024992 -2.208057 0.204604 -0.267075 -0.030023 16.945113 -48.497531 -5.537882 24.811794 64.818393 23.687193 -17.259909 -12.212051 2.447760 0.000144 0.169661 -0.033327
